<?xml version="1.0" encoding="UTF-8"?>
<svg version="1.1" xmlns="http://www.w3.org/2000/svg" width="420" height="420">
<path d="M0 0 C138.6 0 277.2 0 420 0 C420 138.6 420 277.2 420 420 C281.4 420 142.8 420 0 420 C0 281.4 0 142.8 0 0 Z " fill="#F0F0F0" transform="translate(0,0)"/>
<path d="M0 0 C23.43 0 46.86 0 71 0 C71 46.53 71 93.06 71 141 C47.9 141 24.8 141 1 141 C1 163.77 1 186.54 1 210 C24.1 210 47.2 210 71 210 C71 256.53 71 303.06 71 351 C24.47 351 -22.06 351 -70 351 C-70 281.37 -70 211.74 -70 140 C-46.9 140 -23.8 140 0 140 C0 93.8 0 47.6 0 0 Z " fill="#83C45F" transform="translate(315,35)"/>
<path d="M0 0 C23.43 0 46.86 0 71 0 C71 46.2 71 92.4 71 140 C94.1 140 117.2 140 141 140 C141 209.63 141 279.26 141 351 C94.47 351 47.94 351 0 351 C0 304.47 0 257.94 0 210 C23.1 210 46.2 210 70 210 C70 187.23 70 164.46 70 141 C46.9 141 23.8 141 0 141 C0 94.47 0 47.94 0 0 Z " fill="#83C45F" transform="translate(35,35)"/>
</svg>
